<svg width="25" height="25" viewBox="0 0 25 25" fill="none" xmlns="http://www.w3.org/2000/svg">
<path d="M2.5 22.5H22.5V25H2.5V22.5ZM23.75 3.75C23.4185 3.75 23.1005 3.8817 22.8661 4.11612C22.6317 4.35054 22.5 4.66848 22.5 5C22.5002 5.14215 22.5273 5.28297 22.58 5.415C22.6315 5.54267 22.7019 5.66191 22.7888 5.76875L20.1388 7.88375L17.4925 10L15.3 6.15875L13.11 2.31875C13.2979 2.21207 13.4564 2.06046 13.5713 1.8775C13.6885 1.68924 13.7504 1.47179 13.75 1.25C13.75 0.918479 13.6183 0.600537 13.3839 0.366116C13.1495 0.131696 12.8315 0 12.5 0C12.1685 0 11.8505 0.131696 11.6161 0.366116C11.3817 0.600537 11.25 0.918479 11.25 1.25C11.2496 1.47179 11.3115 1.68924 11.4288 1.8775C11.5437 2.06043 11.7022 2.21203 11.89 2.31875L9.69625 6.15875L7.5025 10L4.8575 7.885L2.21125 5.76875C2.29809 5.66191 2.36845 5.54267 2.42 5.415C2.47268 5.28297 2.49982 5.14215 2.5 5C2.5 4.75277 2.42669 4.5111 2.28934 4.30554C2.15199 4.09998 1.95676 3.93976 1.72836 3.84515C1.49995 3.75054 1.24861 3.72579 1.00614 3.77402C0.763662 3.82225 0.540933 3.9413 0.366117 4.11612C0.191301 4.29093 0.0722505 4.51366 0.024019 4.75614C-0.0242126 4.99861 0.000541601 5.24995 0.0951511 5.47835C0.189761 5.70676 0.349977 5.90199 0.555538 6.03934C0.7611 6.17669 1.00277 6.25 1.25 6.25C1.26741 6.24953 1.28467 6.24658 1.30125 6.24125C1.31788 6.23539 1.33504 6.2312 1.3525 6.22875L1.92625 13.115L2.5 20H22.5L23.0737 13.115L23.6475 6.22875C23.6645 6.23128 23.6813 6.23547 23.6975 6.24125C23.7145 6.2467 23.7322 6.24965 23.75 6.25C24.0815 6.25 24.3995 6.1183 24.6339 5.88388C24.8683 5.64946 25 5.33152 25 5C25 4.66848 24.8683 4.35054 24.6339 4.11612C24.3995 3.8817 24.0815 3.75 23.75 3.75Z" fill="url(#paint0_linear_135_24)"/>
<defs>
<linearGradient id="paint0_linear_135_24" x1="-3.07907e-07" y1="3.57143" x2="25" y2="27.6786" gradientUnits="userSpaceOnUse">
<stop offset="0.201" stop-color="#EEAE4F"/>
<stop offset="0.461" stop-color="#FFE0B1"/>
<stop offset="0.741" stop-color="#EEAE4F"/>
</linearGradient>
</defs>
</svg>
