<svg width="26" height="26" viewBox="0 0 26 26" fill="none" xmlns="http://www.w3.org/2000/svg">
<path d="M14.2857 0.653259C15.692 0.657009 16.4057 0.664509 17.022 0.682009L17.2645 0.690759C17.5445 0.700759 17.8207 0.713259 18.1545 0.728259C19.4845 0.790759 20.392 1.00076 21.1882 1.30951C22.0132 1.62701 22.7082 2.05701 23.4032 2.75076C24.0388 3.37563 24.5307 4.1315 24.8445 4.96576C25.1532 5.76201 25.3632 6.66951 25.4257 8.00076C25.4407 8.33326 25.4532 8.60951 25.4632 8.89076L25.4707 9.13326C25.4895 9.74826 25.497 10.462 25.4995 11.8683L25.5007 12.8008V14.4383C25.5038 15.35 25.4942 16.2618 25.472 17.1733L25.4645 17.4158C25.4545 17.697 25.442 17.9733 25.427 18.3058C25.3645 19.637 25.152 20.5433 24.8445 21.3408C24.5316 22.1755 24.0396 22.9315 23.4032 23.5558C22.7782 24.1912 22.0224 24.683 21.1882 24.997C20.392 25.3058 19.4845 25.5158 18.1545 25.5783C17.8579 25.5922 17.5612 25.6047 17.2645 25.6158L17.022 25.6233C16.4057 25.6408 15.692 25.6495 14.2857 25.652L13.3532 25.6533H11.717C10.8048 25.6564 9.89263 25.6468 8.98072 25.6245L8.73822 25.617C8.44148 25.6058 8.14481 25.5929 7.84822 25.5783C6.51822 25.5158 5.61072 25.3058 4.81322 24.997C3.97906 24.6837 3.22349 24.1918 2.59947 23.5558C1.96328 22.9311 1.471 22.1752 1.15697 21.3408C0.848221 20.5445 0.638221 19.637 0.575721 18.3058C0.561795 18.0092 0.549295 17.7125 0.538221 17.4158L0.531971 17.1733C0.508936 16.2618 0.498519 15.35 0.500721 14.4383V11.8683C0.497233 10.9565 0.5064 10.0448 0.528221 9.13326L0.536971 8.89076C0.546971 8.60951 0.559471 8.33326 0.574471 8.00076C0.636971 6.66951 0.846971 5.76326 1.15572 4.96576C1.46961 4.13064 1.96287 3.37454 2.60072 2.75076C3.22459 2.1151 3.97965 1.62324 4.81322 1.30951C5.61072 1.00076 6.51697 0.790759 7.84822 0.728259C8.18072 0.713259 8.45822 0.700759 8.73822 0.690759L8.98072 0.683259C9.89221 0.66105 10.804 0.651466 11.7157 0.654509L14.2857 0.653259ZM13.0007 6.90326C11.3431 6.90326 9.75341 7.56174 8.5813 8.73384C7.4092 9.90594 6.75072 11.4957 6.75072 13.1533C6.75072 14.8109 7.4092 16.4006 8.5813 17.5727C9.75341 18.7448 11.3431 19.4033 13.0007 19.4033C14.6583 19.4033 16.248 18.7448 17.4201 17.5727C18.5922 16.4006 19.2507 14.8109 19.2507 13.1533C19.2507 11.4957 18.5922 9.90594 17.4201 8.73384C16.248 7.56174 14.6583 6.90326 13.0007 6.90326ZM13.0007 9.40326C13.4932 9.40318 13.9808 9.50009 14.4358 9.68847C14.8908 9.87685 15.3043 10.153 15.6526 10.5012C16.0008 10.8493 16.2771 11.2627 16.4657 11.7176C16.6542 12.1726 16.7513 12.6602 16.7513 13.1526C16.7514 13.6451 16.6545 14.1327 16.4661 14.5877C16.2778 15.0427 16.0016 15.4562 15.6534 15.8045C15.3053 16.1527 14.8919 16.429 14.437 16.6176C13.982 16.8061 13.4944 16.9032 13.002 16.9033C12.0074 16.9033 11.0536 16.5082 10.3503 15.8049C9.64706 15.1016 9.25197 14.1478 9.25197 13.1533C9.25197 12.1587 9.64706 11.2049 10.3503 10.5016C11.0536 9.79835 12.0074 9.40326 13.002 9.40326M19.5645 5.02826C19.1501 5.02826 18.7526 5.19288 18.4596 5.4859C18.1666 5.77893 18.002 6.17636 18.002 6.59076C18.002 7.00516 18.1666 7.40259 18.4596 7.69561C18.7526 7.98864 19.1501 8.15326 19.5645 8.15326C19.9789 8.15326 20.3763 7.98864 20.6693 7.69561C20.9624 7.40259 21.127 7.00516 21.127 6.59076C21.127 6.17636 20.9624 5.77893 20.6693 5.4859C20.3763 5.19288 19.9789 5.02826 19.5645 5.02826Z" fill="white"/>
</svg>
