<svg width="43" height="43" viewBox="0 0 43 43" fill="none" xmlns="http://www.w3.org/2000/svg">
<circle cx="21.5" cy="21.5" r="21.5" fill="#FFC01F"/>
<path d="M20.5493 11.3174C20.8487 10.3961 22.1521 10.3961 22.4514 11.3174L24.2192 16.758C24.3531 17.17 24.737 17.449 25.1702 17.449H30.8908C31.8595 17.449 32.2623 18.6886 31.4786 19.258L26.8506 22.6205C26.5001 22.8751 26.3534 23.3265 26.4873 23.7385L28.255 29.1791C28.5544 30.1004 27.4999 30.8665 26.7162 30.2971L22.0882 26.9347C21.7377 26.68 21.2631 26.68 20.9126 26.9347L16.2846 30.2971C15.5008 30.8665 14.4464 30.1004 14.7457 29.1791L16.5135 23.7385C16.6473 23.3265 16.5007 22.8751 16.1502 22.6205L11.5222 19.258C10.7384 18.6886 11.1412 17.449 12.1099 17.449H17.8305C18.2637 17.449 18.6477 17.17 18.7816 16.758L20.5493 11.3174Z" fill="#836A2A"/>
</svg>
