<svg width="26" height="26" viewBox="0 0 26 26" fill="none" xmlns="http://www.w3.org/2000/svg">
<path d="M13 0.653259C6.1 0.653259 0.5 6.25326 0.5 13.1533C0.5 20.0533 6.1 25.6533 13 25.6533C19.9 25.6533 25.5 20.0533 25.5 13.1533C25.5 6.25326 19.9 0.653259 13 0.653259ZM18.8 9.15326C18.6125 11.1283 17.8 15.9283 17.3875 18.1408C17.2125 19.0783 16.8625 19.3908 16.5375 19.4283C15.8125 19.4908 15.2625 18.9533 14.5625 18.4908C13.4625 17.7658 12.8375 17.3158 11.775 16.6158C10.5375 15.8033 11.3375 15.3533 12.05 14.6283C12.2375 14.4408 15.4375 11.5283 15.5 11.2658C15.5087 11.226 15.5075 11.1847 15.4966 11.1455C15.4857 11.1063 15.4654 11.0703 15.4375 11.0408C15.3625 10.9783 15.2625 11.0033 15.175 11.0158C15.0625 11.0408 13.3125 12.2033 9.9 14.5033C9.4 14.8408 8.95 15.0158 8.55 15.0033C8.1 14.9908 7.25 14.7533 6.6125 14.5408C5.825 14.2908 5.2125 14.1533 5.2625 13.7158C5.2875 13.4908 5.6 13.2658 6.1875 13.0283C9.8375 11.4408 12.2625 10.3908 13.475 9.89076C16.95 8.44076 17.6625 8.19076 18.1375 8.19076C18.2375 8.19076 18.475 8.21576 18.625 8.34076C18.75 8.44076 18.7875 8.57826 18.8 8.67826C18.7875 8.75326 18.8125 8.97826 18.8 9.15326Z" fill="white"/>
</svg>
