<svg width="24" height="24" viewBox="0 0 24 24" fill="none" xmlns="http://www.w3.org/2000/svg">
<path fill-rule="evenodd" clip-rule="evenodd" d="M23.7188 3.74394C23.7188 1.9162 22.2371 0.434509 20.4093 0.434509H3.59068C1.76294 0.434509 0.28125 1.9162 0.28125 3.74394V20.5626C0.28125 22.3904 1.76294 23.872 3.59068 23.872H20.4093C22.2371 23.872 23.7188 22.3904 23.7188 20.5626V3.74394ZM19.698 10.6567C18.1859 10.6736 16.7768 10.2164 15.5397 9.36973V15.3133C15.5397 17.9549 13.7315 20.2241 11.1746 20.8167C7.68624 21.6125 4.73323 19.0895 4.36078 16.0754C3.97131 13.0612 5.89365 10.4196 8.84004 9.82694C9.41575 9.70844 10.2817 9.70844 10.7285 9.81004V12.9935C10.591 12.9597 10.4623 12.9258 10.3268 12.9089C9.17534 12.7056 8.0601 13.2814 7.60289 14.3312C7.14571 15.3812 7.45172 16.6003 8.38304 17.3116C9.16192 17.9211 10.0262 18.0057 10.9067 17.5993C11.7872 17.21 12.2605 16.4987 12.362 15.5336C12.379 15.3982 12.378 15.2457 12.378 15.0933V3.6632C12.378 3.34149 12.3805 3.35552 12.7023 3.35552H15.2253C15.4117 3.35552 15.4794 3.38233 15.4963 3.60259C15.6317 5.56685 17.1231 7.2397 19.0365 7.49374C19.2397 7.52758 19.4575 7.54099 19.698 7.5579V10.6567Z" fill="white"/>
</svg>
