<svg width="24" height="24" viewBox="0 0 24 24" fill="none" xmlns="http://www.w3.org/2000/svg">
<path d="M2.325 2.47826C0.75 4.06826 0.75 6.61076 0.75 11.7033V12.6033C0.75 17.6883 0.75 20.2308 2.325 21.8283C3.915 23.4033 6.4575 23.4033 11.55 23.4033H12.45C17.535 23.4033 20.0775 23.4033 21.675 21.8283C23.25 20.2383 23.25 17.6958 23.25 12.6033V11.7033C23.25 6.61826 23.25 4.07576 21.675 2.47826C20.085 0.90326 17.5425 0.903259 12.45 0.903259H11.55C6.465 0.903259 3.9225 0.90326 2.325 2.47826ZM4.545 7.75076H7.125C7.2075 12.0408 9.0975 13.8558 10.5975 14.2308V7.75076H13.02V11.4483C14.4975 11.2908 16.0575 9.60326 16.5825 7.74326H18.9975C18.8007 8.70611 18.4073 9.61801 17.8421 10.422C17.2769 11.2259 16.5519 11.9047 15.7125 12.4158C16.6493 12.8818 17.4766 13.5413 18.1398 14.3506C18.803 15.1599 19.2871 16.1006 19.56 17.1108H16.8975C16.3275 15.3333 14.9025 13.9533 13.02 13.7658V17.1108H12.72C7.59 17.1108 4.665 13.6008 4.545 7.75076Z" fill="white"/>
</svg>
