<svg width="26" height="21" viewBox="0 0 26 21" fill="none" xmlns="http://www.w3.org/2000/svg">
<path fill-rule="evenodd" clip-rule="evenodd" d="M13 0.153259C14.0688 0.153259 15.165 0.180759 16.2275 0.225759L17.4825 0.285759L18.6838 0.357009L19.8088 0.433259L20.8362 0.513259C21.9513 0.598606 23.0006 1.07444 23.7994 1.85706C24.5983 2.63967 25.0955 3.67893 25.2038 4.79201L25.2537 5.32326L25.3475 6.46076C25.435 7.63951 25.5 8.92451 25.5 10.1533C25.5 11.382 25.435 12.667 25.3475 13.8458L25.2537 14.9833C25.2375 15.1658 25.2213 15.342 25.2038 15.5145C25.0955 16.6278 24.598 17.6672 23.7989 18.4498C22.9998 19.2325 21.9503 19.7082 20.835 19.7933L19.81 19.872L18.685 19.9495L17.4825 20.0208L16.2275 20.0808C15.1523 20.1275 14.0762 20.1517 13 20.1533C11.9238 20.1517 10.8477 20.1275 9.7725 20.0808L8.5175 20.0208L7.31625 19.9495L6.19125 19.872L5.16375 19.7933C4.04869 19.7079 2.99944 19.2321 2.20059 18.4495C1.40174 17.6668 0.904468 16.6276 0.79625 15.5145L0.74625 14.9833L0.6525 13.8458C0.556922 12.6172 0.506055 11.3855 0.5 10.1533C0.5 8.92451 0.565 7.63951 0.6525 6.46076L0.74625 5.32326C0.7625 5.14076 0.77875 4.96451 0.79625 4.79201C0.904426 3.67913 1.40152 2.64003 2.20011 1.85744C2.99871 1.07485 4.04766 0.598887 5.1625 0.513259L6.18875 0.433259L7.31375 0.357009L8.51625 0.285759L9.77125 0.225759C10.8469 0.17905 11.9234 0.154878 13 0.153259ZM10.5 7.12201V13.1845C10.5 13.762 11.125 14.122 11.625 13.8345L16.875 10.8033C16.9892 10.7375 17.0841 10.6428 17.1501 10.5287C17.2161 10.4146 17.2508 10.2851 17.2508 10.1533C17.2508 10.0214 17.2161 9.89196 17.1501 9.77784C17.0841 9.66373 16.9892 9.56902 16.875 9.50326L11.625 6.47326C11.511 6.40741 11.3816 6.37276 11.2499 6.37278C11.1182 6.3728 10.9888 6.4075 10.8748 6.47338C10.7608 6.53926 10.6661 6.63401 10.6003 6.74809C10.5345 6.86217 10.4999 6.99157 10.5 7.12326V7.12201Z" fill="white"/>
</svg>
