<svg width="155" height="39" viewBox="0 0 155 39" fill="none" xmlns="http://www.w3.org/2000/svg">
<path d="M17.92 28.664V28.748H13.16C13.0293 28.3 12.8707 27.7867 12.684 27.208C12.516 26.6293 12.3293 26.0133 12.124 25.36H6.076C5.70267 26.6667 5.35733 27.796 5.04 28.748H0.28V28.692L6.02 11.024H12.18L17.92 28.664ZM9.044 14.216C8.85733 15.168 8.58667 16.3253 8.232 17.688C7.87733 19.0507 7.504 20.4413 7.112 21.86H11.116C10.7053 20.4413 10.3227 19.0507 9.968 17.688C9.61333 16.3253 9.34267 15.168 9.156 14.216H9.044ZM24.3709 28.748H19.8909V15.112H24.1469L24.3709 17.604H24.4549C24.7163 16.764 25.1829 16.12 25.8549 15.672C26.5269 15.2053 27.4603 14.972 28.6549 14.972C30.2789 14.972 31.4736 15.4293 32.2389 16.344C33.0229 17.2587 33.4149 18.8453 33.4149 21.104V28.748H28.9349L28.9069 21.972C28.9069 20.9267 28.7483 20.18 28.4309 19.732C28.1136 19.284 27.5163 19.06 26.6389 19.06C25.8176 19.06 25.2389 19.2653 24.9029 19.676C24.5669 20.068 24.3896 20.7493 24.3709 21.72V28.748ZM45.0006 28.748L44.8326 26.76H44.7206C44.4033 27.5067 43.9459 28.0667 43.3486 28.44C42.7699 28.8133 41.9206 29 40.8006 29C38.9899 29 37.6646 28.4773 36.8246 27.432C35.9846 26.368 35.5459 24.772 35.5086 22.644C35.4899 20.74 35.6859 19.228 36.0966 18.108C36.5073 16.988 37.1513 16.1853 38.0286 15.7C38.9059 15.2147 40.0259 14.972 41.3886 14.972C42.0979 14.972 42.7419 15.0373 43.3206 15.168C43.8993 15.28 44.3659 15.4387 44.7206 15.644L44.7766 15.616V9.904H49.2566V28.748H45.0006ZM42.2566 25.192C43.0033 25.192 43.6099 24.9587 44.0766 24.492C44.5433 24.0253 44.7766 23.2507 44.7766 22.168V19.228C44.0859 18.948 43.2739 18.808 42.3406 18.808C41.4633 18.808 40.8286 19.0227 40.4366 19.452C40.0633 19.8627 39.8766 20.7027 39.8766 21.972C39.8766 23.0547 40.0259 23.8667 40.3246 24.408C40.6419 24.9307 41.2859 25.192 42.2566 25.192ZM57.1014 28.748H52.6214V15.112H56.2614L56.6254 17.912H56.7094C56.8774 16.8667 57.2787 16.12 57.9134 15.672C58.5481 15.2053 59.4907 14.972 60.7414 14.972C61.2454 14.972 61.7027 15 62.1134 15.056C62.5241 15.0933 62.8694 15.1307 63.1494 15.168V19.536L63.0934 19.592C62.7947 19.5173 62.4494 19.452 62.0574 19.396C61.6841 19.34 61.2547 19.312 60.7694 19.312C60.0787 19.312 59.4534 19.424 58.8934 19.648C58.3521 19.872 57.9227 20.3107 57.6054 20.964C57.3067 21.5987 57.1574 22.5507 57.1574 23.82L57.1014 28.748ZM77.1295 28.3C76.6068 28.4867 75.8788 28.6547 74.9455 28.804C74.0308 28.9347 72.9388 29 71.6695 29C70.0642 29 68.6922 28.7947 67.5535 28.384C66.4335 27.9547 65.5842 27.236 65.0055 26.228C64.4268 25.2013 64.1375 23.7827 64.1375 21.972C64.1375 19.508 64.6975 17.7253 65.8175 16.624C66.9562 15.5227 68.7108 14.972 71.0815 14.972C72.7802 14.972 74.1148 15.2147 75.0855 15.7C76.0748 16.1853 76.7748 16.876 77.1855 17.772C77.6148 18.6493 77.8295 19.6947 77.8295 20.908C77.8295 21.2627 77.8108 21.6453 77.7735 22.056C77.7548 22.4667 77.7082 22.868 77.6335 23.26L77.5215 23.372H68.3095C68.4402 24.1933 68.8228 24.7347 69.4575 24.996C70.1108 25.2573 71.1655 25.388 72.6215 25.388C73.5922 25.388 74.3948 25.3693 75.0295 25.332C75.6828 25.276 76.3455 25.2013 77.0175 25.108L77.1295 25.192V28.3ZM73.9375 20.432C73.9375 19.984 73.8628 19.6013 73.7135 19.284C73.5828 18.948 73.3122 18.696 72.9015 18.528C72.4908 18.3413 71.8842 18.248 71.0815 18.248C69.9055 18.248 69.1308 18.4533 68.7575 18.864C68.4028 19.256 68.2255 19.7787 68.2255 20.432H73.9375Z" fill="url(#paint0_linear_135_3)"/>
<path d="M79.7633 24.184C80.5846 24.464 81.4806 24.688 82.4513 24.856C83.4406 25.0053 84.4206 25.08 85.3913 25.08C86.7166 25.08 87.6966 25.024 88.3313 24.912C88.9846 24.7813 89.4139 24.5853 89.6193 24.324C89.8246 24.0627 89.9273 23.7267 89.9273 23.316C89.9273 22.9613 89.8526 22.6813 89.7033 22.476C89.5539 22.2707 89.2646 22.112 88.8353 22C88.4059 21.8693 87.7713 21.7667 86.9313 21.692L85.0833 21.524C83.7019 21.3933 82.6099 21.104 81.8073 20.656C81.0233 20.208 80.4633 19.6107 80.1273 18.864C79.8099 18.0987 79.6513 17.184 79.6513 16.12C79.6513 14.8507 79.9033 13.824 80.4073 13.04C80.9299 12.256 81.7699 11.6867 82.9273 11.332C84.0846 10.9587 85.6246 10.772 87.5473 10.772C90.0486 10.772 92.1113 11.0987 93.7353 11.752L93.6513 15.56L93.5673 15.672C91.7193 15.0187 89.7873 14.692 87.7713 14.692C86.8006 14.692 86.0539 14.748 85.5312 14.86C85.0086 14.9533 84.6446 15.112 84.4393 15.336C84.2339 15.56 84.1313 15.8773 84.1313 16.288C84.1313 16.6987 84.1966 17.0067 84.3273 17.212C84.4766 17.4173 84.7659 17.576 85.1953 17.688C85.6246 17.7813 86.2499 17.8747 87.0713 17.968L88.8353 18.164C90.3286 18.332 91.4766 18.6307 92.2793 19.06C93.0819 19.4893 93.6326 20.068 93.9313 20.796C94.2486 21.5053 94.4073 22.3733 94.4073 23.4C94.4073 24.6507 94.1366 25.696 93.5953 26.536C93.0726 27.3573 92.2139 27.9733 91.0193 28.384C89.8246 28.7947 88.2286 29 86.2313 29C84.9246 29 83.7486 28.9347 82.7033 28.804C81.6579 28.6547 80.6406 28.4587 79.6513 28.216V24.268L79.7633 24.184ZM97.4991 24.66V18.78H95.8191V15.14H97.9191L98.7591 11.808H101.979V15.14H105.031V18.78H101.979V23.68C101.979 24.2027 102.044 24.5667 102.175 24.772C102.306 24.9587 102.604 25.052 103.071 25.052C103.37 25.052 103.687 25.0427 104.023 25.024C104.359 24.9867 104.695 24.9493 105.031 24.912L105.115 24.968V28.608C104.219 28.8693 103.034 29 101.559 29C100.084 29 99.0391 28.664 98.4231 27.992C97.8071 27.32 97.4991 26.2093 97.4991 24.66ZM112.817 14.972C114.609 14.972 116.056 15.1587 117.157 15.532C118.258 15.9053 119.061 16.596 119.565 17.604C120.088 18.5933 120.349 20.0307 120.349 21.916V28.748H116.289L116.149 27.46H116.065C115.71 27.9267 115.16 28.3 114.413 28.58C113.666 28.86 112.696 29 111.501 29C108.272 29 106.657 27.488 106.657 24.464C106.657 23.176 107.077 22.168 107.917 21.44C108.776 20.6933 110.12 20.32 111.949 20.32H116.093C115.962 19.536 115.626 19.0133 115.085 18.752C114.544 18.472 113.62 18.332 112.313 18.332C111.492 18.332 110.68 18.3973 109.877 18.528C109.093 18.64 108.402 18.7707 107.805 18.92L107.721 18.864L107.749 15.616C108.122 15.504 108.598 15.4013 109.177 15.308C109.756 15.196 110.362 15.112 110.997 15.056C111.65 15 112.257 14.972 112.817 14.972ZM112.649 25.696C113.806 25.696 114.674 25.556 115.253 25.276C115.832 24.9773 116.13 24.5107 116.149 23.876V23.176H112.985C112.164 23.176 111.585 23.2973 111.249 23.54C110.932 23.764 110.773 24.072 110.773 24.464C110.773 24.9307 110.941 25.2573 111.277 25.444C111.613 25.612 112.07 25.696 112.649 25.696ZM123.558 24.66V18.78H121.878V15.14H123.978L124.818 11.808H128.038V15.14H131.09V18.78H128.038V23.68C128.038 24.2027 128.103 24.5667 128.234 24.772C128.364 24.9587 128.663 25.052 129.13 25.052C129.428 25.052 129.746 25.0427 130.082 25.024C130.418 24.9867 130.754 24.9493 131.09 24.912L131.174 24.968V28.608C130.278 28.8693 129.092 29 127.618 29C126.143 29 125.098 28.664 124.482 27.992C123.866 27.32 123.558 26.2093 123.558 24.66ZM137.924 10.044C137.98 10.716 138.008 11.276 138.008 11.724C138.008 11.9853 137.998 12.256 137.98 12.536C137.98 12.7973 137.961 13.096 137.924 13.432C137.532 13.5067 137.149 13.5627 136.776 13.6C136.402 13.6373 136.029 13.656 135.656 13.656C135.301 13.656 134.937 13.6373 134.564 13.6C134.209 13.5627 133.845 13.5067 133.472 13.432C133.434 13.1147 133.406 12.8253 133.388 12.564C133.369 12.284 133.36 12.0133 133.36 11.752C133.36 11.5093 133.369 11.248 133.388 10.968C133.406 10.688 133.434 10.38 133.472 10.044C133.845 9.95067 134.218 9.89467 134.592 9.876C134.984 9.83867 135.366 9.82 135.74 9.82C136.094 9.82 136.449 9.83867 136.804 9.876C137.177 9.89467 137.55 9.95067 137.924 10.044ZM137.924 28.748H133.444V15.112H137.924V28.748ZM150.208 21.804L154.352 28.748H149.368L147.072 24.576H147.016L144.72 28.748H139.624L143.88 21.804V21.692L139.932 15.112H144.832L147.016 19.368H147.072L149.256 15.112H154.156L150.208 21.692V21.804Z" fill="white"/>
<defs>
<linearGradient id="paint0_linear_135_3" x1="-3.22917" y1="4.68" x2="155.778" y2="31.217" gradientUnits="userSpaceOnUse">
<stop stop-color="#ECB62E"/>
<stop offset="0.52" stop-color="#FFDEAC"/>
<stop offset="1" stop-color="#F2BB2D"/>
</linearGradient>
</defs>
</svg>
